<svg  version="1.1" xmlns="http://www.w3.org/2000/svg" viewBox="0 0 22 22">
   <circle cx="7" cy="16" r="2" stroke-width="1" stroke="#333" fill="none"/>
   <circle cx="15" cy="16" r="2" stroke-width="1" stroke="#333" fill="none"/>
   <line x1="10" y1="16" x2="12" y2="16" stroke="#333" stroke-linecap="round"/>
   <polyline points="18,16 19,16 19,12 17,12 14,6 13,5 6,5 5,6 3,12 3,16 4,16" stroke="#333" fill="none" stroke-linecap="round" stroke-linejoin="round"/>
   <line x1="11" y1="12" x2="11" y2="5" stroke="#333" stroke-linecap="round"/>
   <line x1="3" y1="12" x2="18" y2="12" stroke="#333" stroke-linecap="round"/>
   <polyline points="2,20 21,20 21,6 20,8 22,8 21,6" stroke="#333" fill="none" stroke-linecap="round" stroke-linejoin="round"/>
   <polyline points="21,2 1,2 1,16 2,14 0,14 1,16" stroke="#333" fill="none" stroke-linecap="round" stroke-linejoin="round"/>
</svg>